<mxfile host="app.diagrams.net" modified="2023-12-23T02:59:31.182Z" agent="Mozilla/5.0 (X11; Linux x86_64; rv:109.0) Gecko/20100101 Firefox/115.0" version="22.1.11" etag="VgUf9nv4vq_uybKUOMrK" type="github">
  <diagram name="Страница — 1" id="S_arktGw2sCfFWDUDz6h">
    <mxGraphModel>
      <root>
        <mxCell id="0" />
        <mxCell id="1" parent="0" />
      </root>
    </mxGraphModel>
  </diagram>
</mxfile>
